<?xml version="1.0" encoding="utf-8"?>
<!-- Generator: Adobe Illustrator 16.0.0, SVG Export Plug-In . SVG Version: 6.00 Build 0)  -->
<!DOCTYPE svg PUBLIC "-//W3C//DTD SVG 1.1//EN" "http://www.w3.org/Graphics/SVG/1.1/DTD/svg11.dtd">
<svg version="1.1" id="Layer_1" xmlns="http://www.w3.org/2000/svg" xmlns:xlink="http://www.w3.org/1999/xlink" x="0px" y="0px"
	 width="50px" height="50px" viewBox="0 0 50 50" enable-background="new 0 0 50 50" xml:space="preserve">
<path fill="#020203" d="M22.041,6.067c-8.809,0-15.974,7.167-15.974,15.975c0,8.809,7.165,15.976,15.974,15.976
	c8.809,0,15.976-7.167,15.976-15.976C38.017,13.234,30.85,6.067,22.041,6.067 M22.041,39.523c-9.639,0-17.479-7.841-17.479-17.48
	c0-9.638,7.84-17.48,17.479-17.48c9.64,0,17.481,7.842,17.481,17.48C39.522,31.682,31.681,39.523,22.041,39.523 M44.374,45.438
	l-8.627-8.625l1.065-1.063l8.625,8.625L44.374,45.438z"/>
</svg>
